<?xml version="1.0" standalone="no"?>
<!DOCTYPE svg PUBLIC "-//W3C//DTD SVG 20010904//EN"
 "http://www.w3.org/TR/2001/REC-SVG-20010904/DTD/svg10.dtd">
<svg version="1.0" xmlns="http://www.w3.org/2000/svg"
 width="1084.000000pt" height="1084.000000pt" viewBox="0 0 1084.000000 1084.000000"
 preserveAspectRatio="xMidYMid meet">
<metadata>
Created by potrace 1.11, written by Peter Selinger 2001-2013
</metadata>
<g transform="translate(0.000000,1084.000000) scale(0.100000,-0.100000)"
fill="#000000" stroke="none">
<path d="M5334 10168 c-74 -77 -115 -131 -178 -236 -124 -205 -204 -395 -267
-635 -22 -83 -51 -195 -65 -247 -36 -135 -54 -283 -54 -446 0 -77 -9 -369 -20
-650 -11 -280 -24 -671 -30 -869 -5 -198 -17 -502 -25 -675 -8 -173 -19 -470
-25 -660 -5 -190 -15 -437 -20 -550 -5 -113 -15 -374 -20 -580 -6 -206 -15
-472 -20 -590 -11 -244 -12 -275 -6 -269 5 4 40 151 182 763 47 203 89 378 94
390 12 33 38 181 45 261 18 195 51 351 199 938 70 280 93 355 130 431 51 104
99 156 146 156 61 0 146 -126 188 -280 12 -41 53 -201 92 -355 39 -154 82
-322 96 -373 36 -142 60 -271 84 -452 26 -202 88 -481 305 -1380 l23 -95 1 55
c0 30 -6 224 -14 430 -25 640 -44 1170 -65 1840 -11 355 -27 800 -36 990 -16
364 -30 789 -43 1385 -9 392 -10 395 -85 685 -100 389 -186 599 -339 831 -74
111 -183 239 -205 239 -10 0 -40 -24 -68 -52z"/>
<path d="M4532 8629 c-1086 -232 -2006 -851 -2619 -1761 -383 -568 -604 -1172
-689 -1888 -25 -201 -25 -676 -1 -882 59 -505 187 -950 396 -1382 524 -1080
1503 -1895 2649 -2206 401 -108 669 -143 1097 -144 306 -1 420 7 665 45 1719
269 3101 1593 3444 3299 186 923 50 1911 -376 2730 -341 656 -820 1190 -1432
1594 -439 290 -974 507 -1492 605 l-95 18 2 -153 c1 -149 2 -154 22 -158 654
-132 1231 -403 1744 -821 138 -113 419 -397 540 -547 493 -609 781 -1324 853
-2113 24 -263 9 -649 -35 -940 -171 -1112 -850 -2114 -1837 -2714 -87 -52
-315 -171 -398 -207 -36 -15 -78 -38 -95 -50 -87 -64 -633 -208 -960 -253
-594 -83 -1198 -27 -1766 162 -180 60 -264 95 -456 187 -701 337 -1284 882
-1677 1564 -468 811 -621 1777 -431 2712 152 748 534 1440 1094 1986 501 489
1103 823 1776 988 88 21 181 42 208 46 l47 6 0 154 c0 181 22 166 -178 123z"/>
<path d="M4585 7539 c-336 -95 -614 -218 -882 -391 -74 -48 -106 -62 -167 -74
-87 -18 -113 -13 -263 57 -46 21 -83 36 -83 35 0 -2 11 -48 25 -104 31 -127
31 -175 0 -257 -20 -53 -42 -85 -114 -163 -167 -180 -314 -383 -440 -608 -61
-110 -157 -314 -180 -386 -23 -70 -109 -118 -211 -118 -17 0 -30 -4 -30 -10 0
-5 20 -28 45 -51 54 -50 89 -118 82 -162 -2 -18 -16 -88 -30 -157 -45 -217
-60 -382 -59 -635 1 -126 5 -257 9 -290 6 -42 8 4 9 155 0 288 29 531 89 765
22 83 27 93 77 141 56 53 50 51 201 80 l28 6 -60 63 c-48 51 -61 74 -70 115
-6 28 -11 59 -11 70 0 26 124 266 199 385 151 240 330 456 517 625 52 48 56
50 114 50 67 0 123 -17 224 -66 66 -33 68 -33 64 -12 -52 244 -52 241 -33 303
18 57 20 59 117 122 229 148 445 253 693 334 83 27 169 54 193 59 l42 11 0 64
c0 74 5 72 -95 44z"/>
<path d="M6114 7504 c3 -26 6 -54 6 -64 0 -13 20 -22 79 -38 243 -65 591 -221
788 -354 53 -36 61 -69 39 -174 -8 -43 -14 -79 -12 -81 2 -2 36 12 77 32 107
51 146 49 218 -12 163 -138 385 -377 490 -527 40 -58 41 -62 41 -140 0 -112
-10 -138 -95 -266 -41 -62 -75 -113 -75 -114 0 -1 71 -2 158 -1 l158 0 79 -46
80 -46 43 -119 c60 -164 108 -343 137 -512 30 -173 31 -192 5 -241 -22 -44
-57 -76 -135 -123 -30 -18 -55 -36 -55 -39 0 -3 38 -20 84 -37 52 -20 96 -45
116 -65 l32 -32 -6 -120 c-10 -206 -48 -448 -99 -631 -21 -77 -25 -84 -82
-133 -33 -28 -78 -60 -100 -70 -45 -22 -165 -41 -261 -41 -35 0 -64 -2 -64 -5
0 -3 34 -45 76 -93 105 -120 122 -152 136 -257 13 -104 13 -104 -103 -278
-110 -164 -220 -298 -371 -452 -71 -71 -128 -130 -128 -132 0 -1 14 -24 31
-52 l32 -50 26 18 c14 10 82 77 151 147 191 197 323 368 460 600 39 65 81 127
93 137 63 50 128 65 349 80 l37 2 -66 75 c-94 108 -125 156 -139 218 -12 51
-11 61 12 131 74 228 122 501 140 801 3 67 12 128 21 147 14 30 118 110 166
129 30 11 19 20 -67 53 -102 40 -136 71 -136 127 0 163 -122 648 -216 863 -28
63 -31 138 -9 202 9 23 46 88 83 143 37 55 68 103 70 107 2 4 -68 6 -155 5
l-158 -1 -55 33 c-39 24 -68 53 -100 99 -129 191 -392 478 -565 618 -73 59
-75 61 -74 105 0 25 6 71 14 103 16 67 19 67 -89 16 -34 -16 -73 -29 -88 -29
-15 0 -54 18 -87 40 -207 138 -537 286 -800 361 -144 40 -145 40 -137 -17z"/>
<path d="M6135 6915 c3 -104 8 -208 10 -230 2 -22 7 -150 10 -285 3 -135 8
-288 10 -340 3 -52 12 -315 20 -585 8 -269 17 -519 20 -555 2 -36 7 -175 11
-310 3 -135 8 -252 9 -261 2 -9 8 -189 15 -400 11 -396 18 -466 52 -533 19
-38 584 -626 601 -626 5 0 7 42 5 93 l-3 92 -77 103 c-48 65 -80 117 -84 140
-4 20 -1 401 6 846 13 846 13 855 56 906 9 11 14 98 18 315 4 165 11 391 17
502 9 173 8 210 -5 262 -22 87 -51 137 -117 207 -33 33 -59 68 -59 76 0 8 9
27 21 42 11 15 19 32 16 39 -3 7 -36 51 -74 98 -38 46 -152 187 -253 313 -102
125 -195 240 -208 255 l-23 26 6 -190z"/>
<path d="M4583 7008 c-229 -276 -473 -588 -473 -605 0 -11 7 -26 15 -33 31
-26 17 -58 -63 -148 -43 -48 -84 -98 -91 -111 -11 -19 -11 -120 -2 -525 6
-276 14 -525 17 -553 3 -30 18 -76 34 -106 l29 -54 1 -229 c1 -126 5 -482 9
-791 5 -310 5 -583 0 -608 -11 -58 -36 -106 -94 -180 -25 -33 -53 -76 -62 -95
-16 -38 -20 -157 -4 -173 8 -8 240 222 518 514 86 91 102 112 111 155 6 27 16
177 22 334 6 157 15 402 20 545 6 143 15 413 20 600 6 187 15 430 20 540 5
110 16 416 25 680 8 264 19 577 24 695 6 118 6 219 2 223 -5 5 -40 -29 -78
-75z"/>
<path d="M5330 6578 c-36 -55 -94 -207 -84 -217 2 -2 31 21 63 52 81 77 100
77 175 -4 32 -34 59 -59 62 -56 9 9 -25 118 -58 182 -63 126 -98 136 -158 43z"/>
<path d="M5366 5713 c-47 -4 -52 -8 -148 -105 -88 -89 -99 -104 -93 -127 8
-31 23 -51 39 -51 6 0 46 31 88 70 92 82 106 90 152 90 31 0 49 -12 125 -80
87 -77 117 -94 125 -67 21 65 21 65 -71 159 -78 80 -136 122 -160 116 -4 -1
-30 -3 -57 -5z"/>
<path d="M4948 4985 c-4 -11 -30 -121 -58 -245 -58 -256 -224 -964 -276 -1178
-19 -79 -39 -153 -46 -165 -6 -12 -99 -112 -207 -222 -289 -295 -755 -777
-852 -881 -88 -95 -111 -139 -125 -238 -9 -64 7 -55 46 28 16 34 46 84 67 112
21 28 281 297 578 597 297 301 545 560 551 575 6 15 51 205 98 422 105 476
146 663 186 835 33 143 54 291 48 345 -2 27 -5 31 -10 15z"/>
<path d="M5830 4983 c0 -55 33 -265 60 -380 68 -298 252 -1122 260 -1171 5
-30 17 -66 27 -82 10 -15 260 -272 556 -571 295 -300 553 -567 572 -594 20
-27 50 -79 68 -115 l32 -65 3 38 c4 48 -22 131 -56 177 -27 36 -386 410 -793
825 -260 265 -322 332 -337 361 -6 11 -56 216 -111 455 -55 239 -128 549 -161
689 -33 140 -70 296 -81 345 -22 90 -39 129 -39 88z"/>
<path d="M4938 4523 c-3 -16 -28 -129 -56 -253 -28 -124 -69 -308 -92 -410
-23 -102 -48 -212 -57 -245 -8 -33 -23 -106 -33 -162 -10 -56 -22 -108 -27
-116 -15 -26 -189 -206 -642 -662 -314 -317 -462 -473 -499 -527 -66 -97 -126
-222 -118 -245 6 -15 34 -16 349 -8 188 4 529 11 757 14 l415 6 6 420 c6 518
11 2215 5 2215 -2 0 -6 -12 -8 -27z"/>
<path d="M5851 3234 c-1 -1099 1 -1303 13 -1313 17 -14 1503 -38 1516 -25 11
11 -78 210 -117 264 -16 20 -270 283 -567 583 -296 300 -549 562 -562 581 -16
23 -30 70 -43 145 -11 61 -32 157 -46 213 -14 57 -63 272 -110 478 l-84 375 0
-1301z"/>
<path d="M5013 2708 c-18 -23 -23 -182 -24 -806 -1 -450 2 -617 10 -625 8 -8
69 -14 164 -17 l152 -5 0 -25 0 -25 -145 2 c-146 2 -162 4 -268 49 -40 16 -44
16 -60 0 -14 -14 -17 -37 -17 -144 0 -125 1 -130 33 -193 34 -65 86 -130 121
-148 30 -16 162 -13 212 4 52 19 103 65 131 120 20 38 20 49 14 445 -6 329 -4
431 8 545 17 155 20 171 44 180 27 10 40 -16 58 -120 15 -85 17 -148 13 -430
-2 -181 -4 -389 -4 -460 l0 -131 34 -52 c18 -28 50 -65 71 -82 35 -28 44 -30
121 -30 46 0 101 5 121 10 45 13 87 61 130 148 27 55 32 76 36 166 7 156 -19
208 -85 172 -91 -49 -96 -50 -244 -54 -124 -3 -147 -1 -158 12 -11 13 -11 19
-1 31 10 12 39 15 146 15 73 0 145 5 160 10 l27 11 -8 696 c-4 384 -11 708
-16 720 l-9 23 -379 0 c-291 0 -381 -3 -388 -12z"/>
<path d="M3915 1843 c-285 -2 -523 -7 -528 -12 -5 -5 -6 -54 -2 -110 6 -85 11
-103 26 -112 20 -10 53 -17 579 -119 173 -33 442 -86 598 -116 155 -31 292
-54 304 -52 30 4 36 36 44 228 6 143 5 157 -11 174 -18 17 -39 18 -407 11
l-388 -8 0 25 0 25 182 6 c99 4 277 7 394 7 197 0 214 1 223 18 21 39 -1 42
-253 40 -133 -2 -475 -4 -761 -5z"/>
<path d="M5864 1836 c-16 -42 -14 -42 397 -49 232 -4 396 -10 402 -16 5 -5 7
-17 3 -27 -6 -16 -33 -17 -396 -11 -353 5 -392 4 -406 -11 -15 -14 -16 -34
-10 -162 7 -148 20 -230 37 -240 5 -4 105 13 222 36 116 23 311 60 432 84 749
143 769 147 809 164 45 19 54 38 62 132 5 62 3 82 -7 90 -10 8 -246 14 -776
19 -693 6 -763 5 -769 -9z"/>
<path d="M3936 1432 c-7 -12 -9 -395 -2 -414 19 -43 396 -156 692 -208 89 -15
94 -11 94 74 0 39 3 141 7 226 5 132 4 158 -9 171 -9 8 -77 27 -159 42 -79 16
-246 48 -372 72 -248 49 -244 48 -251 37z"/>
<path d="M6605 1395 c-115 -23 -276 -55 -357 -70 -81 -15 -155 -33 -165 -40
-17 -12 -18 -32 -14 -237 2 -136 7 -228 14 -236 12 -15 46 -11 202 20 128 25
292 70 425 115 116 40 142 51 152 67 9 13 10 371 2 404 -8 28 -7 29 -259 -23z"/>
</g>
</svg>
